<?xml version="1.0" encoding="utf-8"?>
<!-- Generator: Adobe Illustrator 25.2.0, SVG Export Plug-In . SVG Version: 6.00 Build 0)  -->
<svg version="1.1" id="Layer_1" xmlns="http://www.w3.org/2000/svg" xmlns:xlink="http://www.w3.org/1999/xlink" x="0px" y="0px"
	 viewBox="0 0 1920 1000" style="enable-background:new 0 0 1920 1000;" xml:space="preserve">
<style type="text/css">
	.st0{fill:url(#SVGID_1_);}
	.st1{clip-path:url(#SVGID_3_);fill:url(#SVGID_4_);}
	.st2{clip-path:url(#SVGID_6_);fill:url(#SVGID_7_);}
</style>
<linearGradient id="SVGID_1_" gradientUnits="userSpaceOnUse" x1="536.3289" y1="282.0959" x2="1914.12" y2="282.0959" gradientTransform="matrix(0.968 -0.2509 -0.2509 -0.968 179.0675 1279.5953)">
	<stop  offset="0" style="stop-color:#F02B81"/>
	<stop  offset="1" style="stop-color:#130035"/>
</linearGradient>
<path class="st0" d="M651.4,964.2c99.4-131.4,255.6-207.8,412.7-257.5c157.2-49.7,321.1-77.6,474.7-137.3
	c118.8-46.1,230.3-110.9,329.1-191.3c14.3-11.7,32.1-24.4,49.7-18.7c8.6,20.3-0.3,82.5,2.5,102.6c0,65.1,0,92.6,1.3,147.2
	c-25,33.5-63.9,53.3-101.7,71.3c-261.7,124-538.5,215.9-822.4,273C883.3,976.2,764.1,993.4,651.4,964.2L651.4,964.2z"/>
<g>
	<defs>
		<rect id="SVGID_2_" x="-82" y="544" width="2002" height="473"/>
	</defs>
	<clipPath id="SVGID_3_">
		<use xlink:href="#SVGID_2_"  style="overflow:visible;"/>
	</clipPath>
	
		<linearGradient id="SVGID_4_" gradientUnits="userSpaceOnUse" x1="495.1429" y1="224.3443" x2="1963.1886" y2="224.3443" gradientTransform="matrix(1 0 0 -1 0 1000)">
		<stop  offset="0" style="stop-color:#F02B81"/>
		<stop  offset="1" style="stop-color:#13008A"/>
	</linearGradient>
	<path class="st1" d="M495.1,827.1c129.2-102.3,374.7-93.2,539.2-101.9c164.6-8.7,330.3,5.4,494-13.8
		c126.6-14.8,250.8-49.6,366.6-102.6c16.8-7.7,37.2-15.6,52.8-5.6c17,10.9,16.7,35.5,14.3,55.6c-8,68.4-19.7,144-73.3,187.2
		c-32.6,26.2-75.2,35.6-116.3,43.5c-284.4,54.4-575.4,73.9-864.6,57.9c-116.1-6.6-235.8-19.9-337.6-76.5L495.1,827.1z"/>
</g>
<g>
	<defs>
		<rect id="SVGID_5_" x="-82.2" y="527.1" width="2002.3" height="472.9"/>
	</defs>
	<clipPath id="SVGID_6_">
		<use xlink:href="#SVGID_5_"  style="overflow:visible;"/>
	</clipPath>
	
		<linearGradient id="SVGID_7_" gradientUnits="userSpaceOnUse" x1="87.3001" y1="121.3643" x2="2035.2766" y2="121.3643" gradientTransform="matrix(1 0 0 -1 0 1000)">
		<stop  offset="0" style="stop-color:#FF3579"/>
		<stop  offset="0.1344" style="stop-color:#CD2A6F"/>
		<stop  offset="0.3044" style="stop-color:#941D64"/>
		<stop  offset="0.4695" style="stop-color:#65135B"/>
		<stop  offset="0.6255" style="stop-color:#400B53"/>
		<stop  offset="0.7701" style="stop-color:#26054E"/>
		<stop  offset="0.8993" style="stop-color:#16014B"/>
		<stop  offset="1" style="stop-color:#10004A"/>
	</linearGradient>
	<path class="st2" d="M1245.5,829c212.2-21.9,411.9-126,625.1-129.2c37.4-0.6,77.2,2.8,107.4,25c48.3,35.5,54.7,103.9,56.8,163.8
		c1.5,42.5,1.2,90-28.1,120.9c-28.6,30.1-74.7,33.6-116.2,34.3c-309.3,5.4-618.3-33.3-927.5-24.6c-287.6,8.1-599.8,81.8-875.7,0.4
		C162,908.1,310.5,818.9,443,796.8s268-7.2,401.2,9.9C977.4,823.7,1111.9,842.8,1245.5,829L1245.5,829z"/>
</g>
</svg>
